Coordinates
version=1
nRows=14
nColumns=40
inDegrees=yes

Units are S.I. units (second, meters, Newtons, ...)
If the header above contains a line with 'inDegrees', this indicates whether rotational values are in degrees (yes) or radians (no).

endheader
time	pelvis_tilt	pelvis_list	pelvis_rotation	pelvis_tx	pelvis_ty	pelvis_tz	hip_flexion_r	hip_adduction_r	hip_rotation_r	knee_angle_r	knee_angle_r_beta	ankle_angle_r	subtalar_angle_r	mtp_angle_r	hip_flexion_l	hip_adduction_l	hip_rotation_l	knee_angle_l	knee_angle_l_beta	ankle_angle_l	subtalar_angle_l	mtp_angle_l	lumbar_extension	lumbar_bending	lumbar_rotation	arm_flex_r	arm_add_r	arm_rot_r	elbow_flex_r	pro_sup_r	wrist_flex_r	wrist_dev_r	arm_flex_l	arm_add_l	arm_rot_l	elbow_flex_l	pro_sup_l	wrist_flex_l	wrist_dev_l
      3.84000000	    -15.17893547	      0.20891031	    -15.93380795	     -0.25640939	      0.93134374	     -0.87985458	     36.25705816	     -1.63270939	      0.75237189	     36.81278958	      0.64250438	      1.43181935	      0.00000000	      0.00000000	     27.67279970	    -26.75532173	    -30.23562680	     38.32473544	      0.66889282	     -2.31080993	      0.00000000	      0.00000000	    -11.17009993	     -6.01542803	      7.38802966	    -19.30673973	    -37.48388727	     31.38186942	     90.82600462	     87.32728376	      0.00000000	      0.00000000	    -43.23345039	    -40.56304833	     10.53169024	     96.26624159	     87.28669221	      0.00000000	      0.00000000
      3.84500000	    -14.63384252	      0.35974945	    -15.61388641	     -0.25095865	      0.94507522	     -0.88038625	     33.78459505	     -2.17738231	      0.53599710	     33.22364141	      0.57986193	     -2.12966302	      0.00000000	      0.00000000	     25.47318493	    -25.20938222	    -29.90768834	     34.79960839	      0.60736774	     -6.09073568	      0.00000000	      0.00000000	    -10.69438505	     -5.97897975	      7.12268089	    -20.39412797	    -37.38837135	     30.67703886	     91.37072244	     87.33225247	      0.00000000	      0.00000000	    -43.86628185	    -40.40877781	     10.00265377	     96.71005777	     87.29025893	      0.00000000	      0.00000000
      3.85000000	    -13.88166918	      0.44988312	    -15.44614715	     -0.24519497	      0.95922765	     -0.88062637	     30.90511379	     -2.62268947	      0.37051299	     29.22400414	      0.51005509	     -6.08082257	      0.00000000	      0.00000000	     22.85259962	    -23.82715807	    -30.58995191	     30.94914540	      0.54016449	    -10.20372333	      0.00000000	      0.00000000	    -10.48824107	     -5.97936033	      6.99275861	    -21.52581559	    -37.12038902	     29.73001154	     91.77604673	     87.36167149	      0.00000000	      0.00000000	    -44.50635163	    -40.11108316	      9.39457523	     96.97855697	     87.29227603	      0.00000000	      0.00000000
      3.85500000	    -13.02267452	      0.42351170	    -14.76742009	     -0.23855757	      0.97362906	     -0.88174158	     27.73357069	     -3.28603600	     -0.45788418	     25.11610591	      0.43835874	    -10.27102930	      0.00000000	      0.00000000	     20.34400865	    -22.26012273	    -30.43851517	     26.97992262	      0.47088848	    -14.56634655	      0.00000000	      0.00000000	    -10.43064050	     -5.77350616	      6.57463414	    -22.99034591	    -36.86289338	     28.49482989	     92.20680922	     87.41717228	      0.00000000	      0.00000000	    -44.82775969	    -40.02858698	      9.20666613	     97.21181309	     87.32562877	      0.00000000	      0.00000000
      3.86000000	    -12.61997688	      0.47149340	    -14.42677777	     -0.23311926	      0.98755724	     -0.88212078	     25.28068608	     -3.62727334	     -0.81186460	     21.15935845	      0.36930047	    -15.12040872	      0.00000000	      0.00000000	     18.35724698	    -20.96593231	    -30.28359524	     23.07996464	      0.40282137	    -19.62604177	      0.00000000	      0.00000000	     -9.95010636	     -5.64287620	      6.28749557	    -24.00910915	    -36.75043858	     27.79894919	     92.64045940	     87.40297501	      0.00000000	      0.00000000	    -45.36079846	    -39.84107221	      8.74630879	     97.49067109	     87.31839506	      0.00000000	      0.00000000
      3.86500000	    -12.22477698	      0.66093603	    -14.44647741	     -0.22813212	      1.00153423	     -0.88208917	     23.06368119	     -3.92275204	     -0.69305217	     17.57338034	      0.30671335	    -19.71427518	      0.00000000	      0.00000000	     16.23958369	    -19.65775110	    -30.46853980	     19.02807080	      0.33210249	    -24.62578279	      0.00000000	      0.00000000	     -9.42601560	     -5.75403087	      6.49035298	    -25.03861193	    -36.54995713	     26.97179188	     92.85483264	     87.42426539	      0.00000000	      0.00000000	    -45.98546065	    -39.76181751	      8.27707623	     97.93656749	     87.30593792	      0.00000000	      0.00000000
      3.87000000	    -11.65213285	      0.60786952	    -14.10663339	     -0.22241156	      1.01594649	     -0.88248692	     20.44469318	     -4.18458019	     -0.86562232	     13.59970206	      0.23735958	    -24.54426664	      0.00000000	      0.00000000	     14.05143943	    -18.47761081	    -29.97624814	     14.98394918	      0.26151925	    -29.46536753	      0.00000000	      0.00000000	     -9.19571346	     -5.55961469	      6.37152567	    -26.14175706	    -36.35262448	     26.12677331	     93.16743691	     87.43474625	      0.00000000	      0.00000000	    -46.04718044	    -39.89116782	      8.51127820	     98.02270571	     87.35210863	      0.00000000	      0.00000000
      3.87500000	    -11.25541271	      0.61100322	    -13.58519198	     -0.21672210	      1.03009771	     -0.88326726	     18.28061018	     -4.53539002	     -1.28146739	     10.11643511	      0.17656510	    -29.01973147	      0.00000000	      0.00000000	     12.23343353	    -17.34120403	    -29.17439040	     11.10679601	      0.19385016	    -33.98927000	      0.00000000	      0.00000000	     -8.75443669	     -5.37475663	      6.06852877	    -27.08888572	    -36.17447264	     25.30610844	     93.30546194	     87.44915976	      0.00000000	      0.00000000	    -46.33035958	    -39.92974074	      8.61270341	     98.18980059	     87.33988688	      0.00000000	      0.00000000
      3.88000000	    -11.09421087	      0.59975476	    -13.47350676	     -0.21235623	      1.04414285	     -0.88315756	     16.73768881	     -4.59564564	     -1.07382207	      7.09630123	      0.12385382	    -33.57078850	      0.00000000	      0.00000000	     10.76201368	    -16.56178078	    -28.75874566	      7.73726663	      0.13504078	    -37.32094343	      0.00000000	      0.00000000	     -8.17507488	     -5.25248614	      6.09768137	    -27.73389784	    -36.05613319	     24.84748096	     93.42193837	     87.42899157	      0.00000000	      0.00000000	    -46.59591109	    -40.00910243	      8.60187708	     98.45634570	     87.31544048	      0.00000000	      0.00000000
      3.88500000	    -10.89567299	      0.69817235	    -13.23666015	     -0.20786411	      1.05793434	     -0.88349100	     15.33879759	     -4.85027819	     -1.03030437	      4.39645562	      0.07673263	    -36.76007919	      0.00000000	      0.00000000	      9.41842260	    -15.69045213	    -28.22436690	      4.86707540	      0.08494649	    -38.54950949	      0.00000000	      0.00000000	     -7.64447946	     -5.21015319	      6.01008333	    -28.33993962	    -35.99163075	     24.35311043	     93.51978194	     87.43354452	      0.00000000	      0.00000000	    -46.82739926	    -40.11029676	      8.66180317	     98.71798930	     87.31539064	      0.00000000	      0.00000000
      3.89000000	    -10.72423512	      0.66199027	    -12.52866685	     -0.20310571	      1.07189591	     -0.88479567	     13.99728245	     -5.08308527	     -1.55360680	      2.36346148	      0.04125018	    -37.81684869	      0.00000000	      0.00000000	      8.43950726	    -15.00756893	    -27.54117113	      2.66125641	      0.04644769	    -38.82722384	      0.00000000	      0.00000000	     -7.15621948	     -4.96067275	      5.50901871	    -28.90702684	    -35.91765219	     23.91783743	     93.46951034	     87.42742604	      0.00000000	      0.00000000	    -46.77214563	    -40.13985327	      9.11605050	     98.66340174	     87.32197532	      0.00000000	      0.00000000
      3.89500000	    -11.00096744	      0.47432562	    -12.39106952	     -0.20018382	      1.08542159	     -0.88478488	     13.80069894	     -4.86511284	     -1.80342248	      1.64852903	      0.02877226	    -37.61787250	      0.00000000	      0.00000000	      8.22357667	    -15.00770972	    -28.28111733	      1.64894595	      0.02877954	    -38.47305358	      0.00000000	      0.00000000	     -6.33239301	     -4.58860855	      5.48674775	    -29.05060179	    -35.94933517	     23.82671905	     93.35464575	     87.35212639	      0.00000000	      0.00000000	    -46.76492985	    -40.17517569	      9.21379467	     98.74861081	     87.25467211	      0.00000000	      0.00000000
      3.90000000	    -11.21466391	      0.34908692	    -12.26018663	     -0.19769054	      1.09884959	     -0.88494383	     13.45135774	     -4.65733082	     -2.27019610	      1.06439024	      0.01857711	    -37.05475664	      0.00000000	      0.00000000	      8.06011737	    -14.93695338	    -28.87632471	      1.02271063	      0.01784967	    -38.04270376	      0.00000000	      0.00000000	     -5.65445242	     -4.29664396	      5.46748928	    -29.09480597	    -35.95775582	     23.74401601	     93.21243327	     87.27972362	      0.00000000	      0.00000000	    -46.66380412	    -40.15204268	      9.31050075	     98.79327158	     87.18963415	      0.00000000	      0.00000000
      3.90500000	    -11.05865885	     -0.05001277	    -12.14919990	     -0.19527970	      1.11246702	     -0.88499680	     12.78809706	     -4.22066743	     -3.36965673	      0.79431146	      0.01386335	    -36.41010124	      0.00000000	      0.00000000	      7.66626709	    -15.17775223	    -30.15547731	      1.00629126	      0.01756310	    -37.68029097	      0.00000000	      0.00000000	     -5.51733731	     -3.81886191	      5.64745085	    -29.14297622	    -35.92330373	     23.58506008	     92.90668715	     87.37858801	      0.00000000	      0.00000000	    -46.24598145	    -40.33503876	      9.82269719	     98.63127245	     87.29365247	      0.00000000	      0.00000000
